<svg width="87" height="72" viewBox="0 0 87 72" fill="none" xmlns="http://www.w3.org/2000/svg">
<path d="M20.3398 11.896L21.8037 11.0859C22.2818 12.0325 23.0528 12.3741 24.0969 12.3741C25.1704 12.3741 25.9999 11.9349 25.9999 11.1055C25.9999 9.12443 20.5936 10.6273 20.5936 7.02636C20.5936 5.36737 22.0574 4.15723 24.1165 4.15723C25.8633 4.15723 27.0636 4.96727 27.6589 6.06025L26.1951 6.88972C25.795 6.06023 25.024 5.77721 24.1555 5.77721C23.2674 5.77721 22.4965 6.23586 22.4965 6.98729C22.4965 8.90976 27.9029 7.50455 27.9029 11.0665C27.9029 12.8524 26.1756 13.9941 24.1653 13.9941C22.4184 13.9941 21.0718 13.3012 20.3398 11.896Z" fill="white"/>
<path d="M30.1865 18.1123V9.04638C30.1865 6.23586 32.3627 4.11816 35.2123 4.11816C38.0619 4.11816 40.2185 6.35297 40.2185 9.04638C40.2185 11.8959 38.1595 14.0136 35.2904 14.0136C34.0218 14.0136 32.8702 13.4574 32.0993 12.6083V18.1123H30.1865ZM38.3058 9.06592C38.3058 7.33862 36.9591 5.9334 35.2123 5.9334C33.446 5.9334 32.0993 7.33862 32.0993 9.06592C32.0993 10.7835 33.446 12.218 35.2123 12.218C36.9591 12.218 38.3058 10.7737 38.3058 9.06592Z" fill="white"/>
<path d="M41.7695 9.04638C41.7695 6.35297 43.9262 4.11816 46.7953 4.11816C49.6449 4.11816 51.8211 6.23586 51.8211 9.04638V13.7794H50.0157V12.1204C49.3033 13.2719 48.0542 14.0038 46.5123 14.0038C43.7701 14.0135 41.7695 11.7788 41.7695 9.04638ZM49.9084 9.06592C49.9084 7.33862 48.5616 5.91386 46.7953 5.91386C45.0485 5.91386 43.6823 7.33862 43.6823 9.06592C43.6823 10.7835 45.0485 12.1984 46.7953 12.1984C48.5616 12.1984 49.9084 10.7737 49.9084 9.06592Z" fill="white"/>
<path d="M54.5547 13.7793V8.15829C54.5547 5.86498 55.8624 4.15723 58.3313 4.15723C58.9266 4.15723 59.5414 4.27431 60.0293 4.49876V6.38225C59.5707 6.10901 59.0242 5.98211 58.507 5.98211C57.2383 5.98211 56.4674 6.85069 56.4674 8.23644V13.7793H54.5547Z" fill="white"/>
<path d="M61.5215 13.7794V0H63.4244V8.2754H64.5759C64.6735 8.04119 64.8297 7.83635 65.0151 7.64118L68.0403 4.35248H70.3726L66.313 8.78288C66.1959 8.88046 66.1374 8.95856 66.1374 9.05615C66.1374 9.15374 66.1959 9.23184 66.313 9.32942L70.3531 13.7989H68.0013L64.9956 10.5102C64.8004 10.276 64.6443 10.0516 64.5564 9.79782H63.4244V13.7989H61.5215V13.7794Z" fill="white"/>
<path d="M74.5094 0.0197754V13.7796H72.6064V0.0197754H74.5094Z" fill="white"/>
<path d="M77.0098 9.00744C77.0098 6.29451 78.9517 4.07935 81.7817 4.07935C84.6313 4.07935 86.3977 6.13838 86.3977 8.77324V9.54422H78.8541C79.0688 11.1642 80.2984 12.2961 81.9867 12.2961C83.1382 12.2961 84.1824 11.7985 84.7387 10.7543L86.2025 11.5057C85.373 13.1257 83.8506 13.9845 82.0062 13.9845C79.1469 13.9943 77.0098 11.9156 77.0098 9.00744ZM84.4947 8.31461C84.4166 6.81176 83.3237 5.7969 81.7623 5.7969C80.1618 5.7969 79.1274 6.90935 78.9322 8.31461H84.4947Z" fill="white"/>
<path d="M54.0262 31.4917L55.6266 30.6232C56.1829 31.6381 57.2271 32.3017 58.5933 32.3017C60.5744 32.3017 61.9211 30.8769 61.9211 28.6617V27.9102C61.3063 28.8959 60.1547 29.6278 58.5738 29.6278C55.8999 29.6278 53.7822 27.5101 53.7822 24.7386C53.7822 22.0452 55.9389 19.8301 58.808 19.8301C61.6576 19.8301 63.8338 21.9477 63.8338 24.7582V28.6421C63.8338 31.9113 61.6381 34.0485 58.6421 34.0485C56.5928 34.0485 54.8947 33.1702 54.0262 31.4917ZM61.9015 24.7192C61.9015 22.9919 60.5158 21.6354 58.7885 21.6354C57.0709 21.6354 55.6754 22.9822 55.6754 24.7192C55.6754 26.4465 57.0807 27.8322 58.7885 27.8322C60.5158 27.8322 61.9015 26.4465 61.9015 24.7192Z" fill="white"/>
<path d="M66.6357 16.9412C66.6357 16.2483 67.192 15.6726 67.8848 15.6726C68.5777 15.6726 69.1144 16.2483 69.1144 16.9412C69.1144 17.634 68.5777 18.1903 67.8848 18.1903C67.192 18.1903 66.6357 17.634 66.6357 16.9412ZM68.8509 20.064V29.4909H66.948V20.064H68.8509Z" fill="white"/>
<path d="M72.949 29.4908V21.7131H71.1631V20.0542H72.949V19.0685C72.949 17.068 74.1981 15.5652 76.5695 15.5652C77.2038 15.5652 77.7991 15.6823 78.287 15.9165V17.7218C77.8479 17.4486 77.2819 17.3022 76.7451 17.3022C75.5741 17.3022 74.8617 17.8194 74.8617 19.0685V20.0542H78.1699V21.7131H74.8519V29.4908H72.949Z" fill="white"/>
<path d="M80.7086 26.1048V21.7134H78.8447V20.0544H80.7086V17.6147H82.6116V20.0544H86.232V21.7134H82.6116V26.0463C82.6116 27.2759 83.3435 28.0078 84.4755 28.0078C85.0903 28.0078 85.7637 27.7736 86.2223 27.4515V29.1984C85.7442 29.5302 84.9927 29.735 84.2998 29.735C81.9577 29.7448 80.7086 28.2615 80.7086 26.1048Z" fill="white"/>
<path d="M46.375 40.4695C46.375 37.7566 48.5902 35.5219 51.3032 35.5414C53.0305 35.5414 54.6309 36.3319 55.4994 38.0201L53.9185 38.9081C53.3622 37.8834 52.4157 37.3467 51.3032 37.3467C49.6442 37.3467 48.278 38.7521 48.278 40.4598C48.278 42.1871 49.6442 43.6119 51.3032 43.6119C52.4157 43.6119 53.3622 43.0752 53.9185 42.0505L55.4994 42.9189C54.6309 44.6365 53.0402 45.3977 51.3032 45.3977C48.5805 45.4563 46.375 43.2019 46.375 40.4695Z" fill="white"/>
<path d="M56.8379 40.4694C56.8379 37.7759 58.9946 35.5413 61.8637 35.5413C64.7132 35.5413 66.8895 37.6588 66.8895 40.4694V45.2024H65.084V43.5434C64.3717 44.6949 63.1226 45.4269 61.5807 45.4269C58.8385 45.4366 56.8379 43.2018 56.8379 40.4694ZM64.9865 40.4889C64.9865 38.7616 63.6398 37.3368 61.8734 37.3368C60.1266 37.3368 58.7604 38.7616 58.7604 40.4889C58.7604 42.2064 60.1266 43.6215 61.8734 43.6215C63.63 43.6215 64.9865 42.1967 64.9865 40.4889Z" fill="white"/>
<path d="M69.623 45.2024V39.5814C69.623 37.2881 70.9307 35.5803 73.3997 35.5803C73.995 35.5803 74.6098 35.6974 75.0977 35.9316V37.815C74.639 37.5418 74.0925 37.415 73.5753 37.415C72.3067 37.415 71.5357 38.2834 71.5357 39.6692V45.2122H69.623V45.2024Z" fill="white"/>
<path d="M75.8955 40.5085C75.8955 37.6395 77.9741 35.5414 80.8237 35.5414C82.0923 35.5414 83.2439 36.0976 84.0148 36.9466L84.0343 31.4426H85.9372V40.5085C85.9372 43.2995 83.7611 45.4368 80.9115 45.4368C78.0424 45.4368 75.8955 43.2215 75.8955 40.5085ZM84.0343 40.489C84.0343 38.7715 82.6876 37.3565 80.9212 37.3565C79.1744 37.3565 77.8082 38.7812 77.8082 40.489C77.8082 42.2261 79.1744 43.6411 80.9212 43.6411C82.6876 43.6411 84.0343 42.2163 84.0343 40.489Z" fill="white"/>
<path d="M51.3718 59.4016C51.528 59.1576 51.5768 59.0601 51.6256 58.7576C51.6939 58.3184 51.5182 58.0549 51.1278 57.5084C51.0693 57.4499 50.8058 57.0985 50.0251 56.2593C49.2834 55.4591 44.4528 51.4385 41.0373 48.7255C40.7835 48.5499 39.6711 47.6228 38.8806 47.252C37.1241 45.9443 35.3675 44.6464 33.7085 43.2314C36.0604 39.1132 38.1292 34.8193 40.8128 30.8963C42.5987 28.2614 44.609 25.851 46.6291 23.4113C47.3122 22.289 46.0435 21.1181 44.9603 21.7914C43.1452 23.0308 41.5545 24.192 39.6711 25.4119C35.143 28.5152 30.41 31.3647 25.5599 33.9508C24.9158 32.9847 24.4279 31.9307 23.9009 30.8963C23.491 30.1253 23.0226 29.3837 22.5737 28.6323C22.2517 28.1541 21.998 27.5978 21.5491 27.227C20.8074 26.6122 19.5876 26.8757 19.1192 27.7052C18.8947 28.2126 18.9532 28.6128 18.8459 29.4618C18.7385 30.3108 18.7288 30.8182 18.6214 31.7258C18.5141 33.6775 18.4262 35.6488 18.5921 37.6005C16.7965 38.5081 14.9131 39.3669 13.0492 40.1378C11.8586 40.6355 10.7071 41.2308 9.54582 41.7773C7.1842 42.802 4.85185 43.8755 2.57806 45.0953C1.83639 45.5247 0.450672 46.0516 0.0993574 46.8421C-0.31051 47.8667 0.636039 48.4425 1.32891 48.5401C2.13889 48.6572 2.47071 48.5304 3.1831 48.4913C3.89549 48.4523 5.89602 48.2375 7.75019 48.0424C11.156 47.7789 14.552 47.3593 17.9286 46.8323C17.6163 52.5899 17.4992 58.3672 16.8747 64.1053C16.7478 65.3252 16.6306 66.545 16.5331 67.7746C16.4843 68.409 16.4355 69.053 16.4453 69.6971C16.455 70.2143 16.4355 70.7608 16.6307 71.2487C17.1381 72.3807 18.5629 72.1562 18.9727 71.0925C19.5583 69.7849 20.1438 68.487 20.7879 67.2086C21.754 65.3349 22.8275 63.51 23.9204 61.6948C25.5404 58.8843 27.0725 56.0251 28.5656 53.1463C29.1707 53.3903 29.7855 53.6147 30.3905 53.8587C32.1568 54.5906 33.9427 55.2931 35.7285 55.9762C38.8318 57.1668 42.0132 58.1817 45.2628 58.8941C46.6876 59.1381 48.9809 59.6651 49.4982 59.8408C50.0154 60.0164 50.2788 60.0359 50.5911 59.9871C50.9522 59.8895 51.2352 59.6358 51.3718 59.4016Z" fill="white"/>
<path d="M11.5366 27.3343C10.7461 26.8073 10.5217 25.9778 10.5412 24.9141C10.5802 22.1621 12.7662 18.9222 14.9229 17.4682C16.0159 16.746 17.4504 16.6387 18.6898 16.8436C19.0997 16.9314 20.1828 17.1559 20.7293 17.6828C22.642 19.5468 20.7879 22.1133 19.4217 23.6943C17.6846 25.9388 14.5521 28.9249 11.5366 27.3343Z" fill="white"/>
</svg>
